<svg xmlns="http://www.w3.org/2000/svg" width="24" height="24" viewBox="0 0 24 24" fill="none">
  <path d="M15 5C17.8284 5 19.2424 5.00023 20.1211 5.87891C20.9998 6.75759 21 8.17157 21 11V13C21 15.8284 20.9998 17.2424 20.1211 18.1211C19.2424 18.9998 17.8284 19 15 19H9C6.17157 19 4.75759 18.9998 3.87891 18.1211C3.00023 17.2424 3 15.8284 3 13V11C3 8.17157 3.00023 6.75759 3.87891 5.87891C4.75759 5.00023 6.17157 5 9 5H15ZM18.832 8.44531C18.5257 7.98578 17.9048 7.86162 17.4453 8.16797L12 11.7979L6.55469 8.16797L6.4668 8.11523C6.01884 7.8782 5.45515 8.01454 5.16797 8.44531C4.88068 8.87624 4.97184 9.44921 5.36328 9.77148L5.44531 9.83203L10.8906 13.4619L11.0186 13.541C11.6707 13.9085 12.4795 13.8818 13.1094 13.4619L18.5547 9.83203C19.0142 9.52568 19.1384 8.90484 18.832 8.44531Z" fill="white"/>
</svg>